<?xml version="1.0" encoding="UTF-8"?>
<svg version="1.1" xmlns="http://www.w3.org/2000/svg" width="1024" height="1024">
<path d="M0 0 C0 0.99 0 1.98 0 3 C-2.23975098 4.67452367 -4.442617 6.15675234 -6.8125 7.625 C-12.86530697 11.49462707 -18.38130956 15.58934112 -23.828125 20.28515625 C-26 22 -26 22 -29 23 C-29.68888539 24.3219906 -30.35293881 25.6570428 -31 27 C-32.14975864 28.16354472 -33.34235268 29.28549472 -34.5625 30.375 C-49.15953869 44.62701778 -57.00410136 65.3363112 -57.25 85.5 C-57.23534649 110.62490686 -45.98509101 130.62710551 -29 148.375 C7.48947046 184.05918559 59.30963395 199.43950302 106.625 214.8125 C107.29042816 215.02963654 107.95585632 215.24677307 108.64144897 215.4704895 C110.50144379 216.07545211 112.36394358 216.67269691 114.2265625 217.26953125 C115.27408691 217.60573486 116.32161133 217.94193848 117.40087891 218.28833008 C120.03311689 219.13204542 120.03311689 219.13204542 123 219 C123 219.66 123 220.32 123 221 C123.55265533 221.0937088 124.10531067 221.1874176 124.67471313 221.28396606 C132.49597568 222.71974145 140.00210308 225.00795321 147.5859375 227.3671875 C148.99875043 227.80294831 150.41167106 228.23836007 151.82469177 228.67344666 C155.57188537 229.82899991 159.31691967 230.99139649 163.06134415 232.1558876 C165.38230908 232.87727175 167.70381371 233.59689312 170.02548218 234.31600952 C192.44691109 241.26290409 214.80571487 248.35378845 237 256 C239.13399523 256.72691299 241.26810408 257.45349253 243.40234375 258.1796875 C311.98355527 281.63991067 382.11450923 313.48172191 426 374 C426.99769731 375.35099993 427.99643788 376.70122989 428.99609375 378.05078125 C430.90370814 380.63314802 432.80157016 383.22206976 434.6875 385.8203125 C435.96815865 387.58121814 437.25897079 389.33532581 438.58984375 391.05859375 C450.79290755 407.85893366 458.71204126 428.38500244 465 448 C465.33668701 449.03882324 465.33668701 449.03882324 465.68017578 450.09863281 C469 460.38677571 469 460.38677571 469 463 C468.34 463 467.68 463 467 463 C465.41799618 460.80040623 463.94928683 458.59754131 462.5 456.3125 C452.2632915 440.63644161 440.5386347 425.91691369 426 414 C424.31686426 412.34996678 422.64925814 410.68389523 421 409 C384.75768594 373.44622732 335.26868059 352.95590255 288 337 C288.8353125 338.12921875 288.8353125 338.12921875 289.6875 339.28125 C309.16698584 366.39458839 315.77296465 396.55509111 310.47875977 429.53051758 C304.49923459 462.87040175 289.26750346 492.49138786 270 520 C269.38672852 520.88075195 268.77345703 521.76150391 268.14160156 522.66894531 C266.35566339 525.22499283 264.55688905 527.7712291 262.75 530.3125 C262.20102051 531.09004639 261.65204102 531.86759277 261.08642578 532.66870117 C260.57837402 533.3722876 260.07032227 534.07587402 259.546875 534.80078125 C259.10182617 535.42122314 258.65677734 536.04166504 258.19824219 536.6809082 C257.80282227 537.1162085 257.40740234 537.55150879 257 538 C256.34 538 255.68 538 255 538 C254.76796875 538.54011719 254.5359375 539.08023438 254.296875 539.63671875 C252.63083466 542.672726 250.49588336 545.19820424 248.25 547.8125 C247.76104248 548.38379639 247.27208496 548.95509277 246.76831055 549.54370117 C237.41889862 560.37714674 227.47222741 570.62952847 217.39389038 580.78134155 C216.35689012 581.82638663 215.32137424 582.87290722 214.2875061 583.92105103 C208.2603846 590.02261935 202.07629689 595.74196503 195.36450195 601.10107422 C192.68256057 603.25493484 190.18716767 605.51396936 187.6875 607.875 C181.41656116 613.63748434 174.75072524 618.81929842 168 624 C166.90359563 624.84368477 165.8072402 625.68743313 164.7109375 626.53125 C163.10318077 627.76811733 161.49473513 629.00403038 159.8840332 630.23706055 C157.14005631 632.34015676 154.411447 634.45948423 151.70703125 636.61328125 C143.1196028 643.44957226 134.32357246 649.94792295 125.37841797 656.30859375 C123.80008708 657.43101998 122.22356844 658.55599917 120.64892578 659.68359375 C100.4301614 674.15122437 79.44002672 687.42271989 58 700 C57.21898926 700.4626123 56.43797852 700.92522461 55.63330078 701.40185547 C33.20776286 714.66021269 9.92855499 726.75686594 -13.98144531 737.10742188 C-17.02468312 738.45310129 -20.00661195 739.92242621 -23 741.375 C-33.67753548 746.39215522 -44.74478507 750.50810439 -55.74902344 754.74462891 C-58.59049553 755.84186903 -61.4253191 756.95407097 -64.2578125 758.07421875 C-65.69246314 758.63344193 -67.12733485 759.19209856 -68.5625 759.75 C-70.35880859 760.45382812 -70.35880859 760.45382812 -72.19140625 761.171875 C-75 762 -75 762 -78 761 C-77.3922876 760.65855957 -76.7845752 760.31711914 -76.15844727 759.96533203 C-53.40641389 747.17173316 -31.17118408 734.10617628 -9.73486328 719.20458984 C-8.3042613 718.21126165 -6.8694823 717.22395208 -5.43359375 716.23828125 C13.36820292 703.25686685 31.70718449 689.40953997 49.04296875 674.5234375 C51.91166727 672.07538038 54.8203195 669.68704049 57.75 667.3125 C62.04619088 663.82774195 66.16747106 660.19545632 70.22265625 656.43359375 C72 655 72 655 74 655 C74.33 654.01 74.66 653.02 75 652 C80.46511628 647 80.46511628 647 83 647 C83 646.34 83 645.68 83 645 C84.22265625 643.765625 84.22265625 643.765625 86.0625 642.25 C97.7388669 632.26761379 108.63249376 621.46953897 119.5 610.625 C120.06612 610.0614682 120.63223999 609.4979364 121.21551514 608.91732788 C126.82903788 603.3240445 132.39720692 597.73063286 137.54589844 591.69921875 C139.74869042 589.1251032 142.06582535 586.66656888 144.375 584.1875 C151.24464839 576.74686476 157.60682223 568.94885199 163.625 560.8046875 C164.92328019 559.10069475 166.27662251 557.48628623 167.6875 555.875 C181.99484294 539.31249448 194.19465617 521.01417213 205 502 C205.36399902 501.36771484 205.72799805 500.73542969 206.10302734 500.08398438 C224.15540043 468.46692212 238.53631701 427.46265898 229 391.00390625 C223.26581045 370.67137487 211.51459813 353.67160407 193.12988281 342.90478516 C173.07624213 332.08293263 150.95202707 330.21071856 128.625 329.0625 C69.61052399 326.01261599 5.92168938 313.13234853 -38.51171875 271.33203125 C-41.46226764 268.56676016 -44.53135604 265.96383945 -47.63671875 263.375 C-49 262 -49 262 -49 260 C-49.99 259.67 -50.98 259.34 -52 259 C-53.47045898 257.45288086 -53.47045898 257.45288086 -54.99609375 255.46484375 C-55.55490234 254.73716797 -56.11371094 254.00949219 -56.68945312 253.25976562 C-57.26630859 252.49341797 -57.84316406 251.72707031 -58.4375 250.9375 C-59.01048828 250.19822266 -59.58347656 249.45894531 -60.17382812 248.69726562 C-63.74458053 244.00063732 -66.52543902 239.35648212 -69 234 C-65.62724001 235.59773892 -63.37919598 237.39663256 -60.6875 240 C-31.09947135 267.03584489 10.10978565 281.05892996 48.5 289.375 C49.27126221 289.54298096 50.04252441 289.71096191 50.8371582 289.8840332 C54.96124742 290.73344782 58.76355547 291.17428411 63 291 C63 291.66 63 292.32 63 293 C63.76957031 293.04898437 64.53914062 293.09796875 65.33203125 293.1484375 C67.05486328 293.26058594 67.05486328 293.26058594 68.8125 293.375 C69.46702148 293.41753906 70.12154297 293.46007812 70.79589844 293.50390625 C75.21946411 293.7976199 79.63921164 294.12532596 84.05859375 294.4765625 C104.0359231 296.05324992 123.96641187 296.87706337 144 297.2109375 C178.15425765 297.78124628 211.99835365 298.81973164 245.95361328 302.66845703 C250.62994056 303.17738895 255.31358267 303.59602883 260 304 C225.79248486 290.01953729 189.30915613 286.82617389 152.75 284.5625 C81.07979581 280.12398273 5.6353514 270.65307723 -54 227 C-54.92554688 226.32324219 -55.85109375 225.64648438 -56.8046875 224.94921875 C-61.40281913 221.48987673 -61.40281913 221.48987673 -63 220 C-63 219.34 -63 218.68 -63 218 C-63.56460938 217.75894531 -64.12921875 217.51789063 -64.7109375 217.26953125 C-82.35985236 207.48131055 -95.59290171 181.79479437 -101.36669922 163.21484375 C-110.03782086 132.88931733 -107.25643679 101.44053325 -91.99658203 73.76904297 C-71.37649251 37.16611091 -38.10400914 15.18348104 0 0 Z " fill="#FE9599" transform="translate(408,173)"/>
<path d="M0 0 C3.37275999 1.59773892 5.62080402 3.39663256 8.3125 6 C37.90052865 33.03584489 79.10978565 47.05892996 117.5 55.375 C118.27126221 55.54298096 119.04252441 55.71096191 119.8371582 55.8840332 C123.96124742 56.73344782 127.76355547 57.17428411 132 57 C132 57.66 132 58.32 132 59 C132.76957031 59.04898438 133.53914062 59.09796875 134.33203125 59.1484375 C136.05486328 59.26058594 136.05486328 59.26058594 137.8125 59.375 C138.46702148 59.41753906 139.12154297 59.46007812 139.79589844 59.50390625 C144.21946411 59.7976199 148.63921164 60.12532596 153.05859375 60.4765625 C173.0359231 62.05324992 192.96641187 62.87706337 213 63.2109375 C247.15425765 63.78124628 280.99835365 64.81973164 314.95361328 68.66845703 C319.62994056 69.17738895 324.31358267 69.59602883 329 70 C313.05233354 63.48225806 296.87991418 59.31669005 280 56 C280 55.67 280 55.34 280 55 C288.48987345 55.43994541 296.31372551 57.14656532 304.5 59.375 C305.64597656 59.67921875 306.79195312 59.9834375 307.97265625 60.296875 C310.23546762 60.89926165 312.49682904 61.50712551 314.7565918 62.12084961 C316.87800488 62.69587471 319.0018109 63.26216124 321.12817383 63.81860352 C322.5748645 64.20036743 322.5748645 64.20036743 324.05078125 64.58984375 C324.89552002 64.81019287 325.74025879 65.03054199 326.6105957 65.25756836 C330.32968181 66.41315647 333.58868819 68.13343316 337 70 C337 70.99 337 71.98 337 73 C325.80181556 72.55330488 314.75868653 71.46534062 303.64477539 70.01635742 C298.3808449 69.34303013 293.30743203 68.82709499 288 69 C289.02351563 69.40347656 290.04703125 69.80695313 291.1015625 70.22265625 C303.13656043 75.08106094 314.69356719 80.72386878 326.23876953 86.63110352 C335.74495484 91.47963542 345.36131631 95.92829652 355.5 99.3125 C356.93859375 99.80169922 356.93859375 99.80169922 358.40625 100.30078125 C361.19596359 101.17352423 361.19596359 101.17352423 365 101 C365 101.66 365 102.32 365 103 C365.94875 103.0825 366.8975 103.165 367.875 103.25 C371.92283641 103.83288844 375.4165399 105.2421502 379.171875 106.8203125 C383.4463849 108.6033263 387.78570854 110.21290661 392.1171875 111.8515625 C394.4906342 112.79708192 396.74180418 113.81090172 399 115 C399 115.66 399 116.32 399 117 C399.53367187 117.15855469 400.06734375 117.31710937 400.6171875 117.48046875 C406.74868303 119.40053915 412.32459514 122.00234357 418 125 C417.34 125.33 416.68 125.66 416 126 C413.69458008 125.18652344 413.69458008 125.18652344 410.76953125 123.859375 C409.6702832 123.37049805 408.57103516 122.88162109 407.43847656 122.37792969 C406.2419043 121.84071289 405.04533203 121.30349609 403.8125 120.75 C392.9466355 115.94448449 381.96634056 111.66663531 370.75 107.75 C370.05798492 107.5082605 369.36596985 107.266521 368.65298462 107.01745605 C364.77302977 105.66542328 360.88866967 104.32679701 357 103 C357.59965576 103.8448999 358.19931152 104.6897998 358.81713867 105.56030273 C363.03458175 111.5460996 367.14824815 117.43627736 370.3125 124.0625 C370.63951904 124.73676025 370.96653809 125.41102051 371.3034668 126.10571289 C386.57625667 158.25674695 382.47058653 193.84471079 371.12109375 226.53125 C363.35080719 248.05931666 352.08971107 267.31154949 339 286 C338.38672852 286.88075195 337.77345703 287.76150391 337.14160156 288.66894531 C335.35566339 291.22499283 333.55688905 293.7712291 331.75 296.3125 C331.20102051 297.09004639 330.65204102 297.86759277 330.08642578 298.66870117 C329.57837402 299.3722876 329.07032227 300.07587402 328.546875 300.80078125 C328.10182617 301.42122314 327.65677734 302.04166504 327.19824219 302.6809082 C326.80282227 303.1162085 326.40740234 303.55150879 326 304 C325.34 304 324.68 304 324 304 C323.76796875 304.54011719 323.5359375 305.08023437 323.296875 305.63671875 C321.63083466 308.672726 319.49588336 311.19820424 317.25 313.8125 C316.76104248 314.38379639 316.27208496 314.95509277 315.76831055 315.54370117 C306.41889862 326.37714674 296.47222741 336.62952847 286.39389038 346.78134155 C285.35689012 347.82638663 284.32137424 348.87290722 283.2875061 349.92105103 C277.2603846 356.02261935 271.07629689 361.74196503 264.36450195 367.10107422 C261.68256057 369.25493484 259.18716767 371.51396936 256.6875 373.875 C250.41656116 379.63748434 243.75072524 384.81929842 237 390 C235.90359563 390.84368477 234.8072402 391.68743313 233.7109375 392.53125 C232.10318077 393.76811733 230.49473513 395.00403038 228.8840332 396.23706055 C226.14005631 398.34015676 223.411447 400.45948423 220.70703125 402.61328125 C212.1196028 409.44957226 203.32357246 415.94792295 194.37841797 422.30859375 C192.80008708 423.43101998 191.22356844 424.55599917 189.64892578 425.68359375 C169.4301614 440.15122437 148.44002672 453.42271989 127 466 C126.21898926 466.4626123 125.43797852 466.92522461 124.63330078 467.40185547 C102.20776286 480.66021269 78.92855499 492.75686594 55.01855469 503.10742188 C51.97531688 504.45310129 48.99338805 505.92242621 46 507.375 C35.32246452 512.39215522 24.25521493 516.50810439 13.25097656 520.74462891 C10.40950447 521.84186903 7.5746809 522.95407097 4.7421875 524.07421875 C3.30753686 524.63344193 1.87266515 525.19209856 0.4375 525.75 C-1.35880859 526.45382812 -1.35880859 526.45382812 -3.19140625 527.171875 C-6 528 -6 528 -9 527 C-8.3922876 526.65855957 -7.7845752 526.31711914 -7.15844727 525.96533203 C15.59358611 513.17173316 37.82881592 500.10617628 59.26513672 485.20458984 C60.6957387 484.21126165 62.1305177 483.22395208 63.56640625 482.23828125 C82.36820292 469.25686685 100.70718449 455.40953997 118.04296875 440.5234375 C120.91166727 438.07538038 123.8203195 435.68704049 126.75 433.3125 C131.04619088 429.82774195 135.16747106 426.19545632 139.22265625 422.43359375 C141 421 141 421 143 421 C143.33 420.01 143.66 419.02 144 418 C149.46511628 413 149.46511628 413 152 413 C152 412.34 152 411.68 152 411 C153.22265625 409.765625 153.22265625 409.765625 155.0625 408.25 C166.7388669 398.26761379 177.63249376 387.46953897 188.5 376.625 C189.06612 376.0614682 189.63223999 375.4979364 190.21551514 374.91732788 C195.82903788 369.3240445 201.39720692 363.73063286 206.54589844 357.69921875 C208.74869042 355.1251032 211.06582535 352.66656888 213.375 350.1875 C220.24464839 342.74686476 226.60682223 334.94885199 232.625 326.8046875 C233.92328019 325.10069475 235.27662251 323.48628623 236.6875 321.875 C250.99484294 305.31249448 263.19465617 287.01417213 274 268 C274.36399902 267.36771484 274.72799805 266.73542969 275.10302734 266.08398438 C293.15540043 234.46692212 307.53631701 193.46265898 298 157.00390625 C292.26581045 136.67137487 280.51459813 119.67160407 262.12988281 108.90478516 C242.07624213 98.08293263 219.95202707 96.21071856 197.625 95.0625 C138.61052399 92.01261599 74.92168938 79.13234853 30.48828125 37.33203125 C27.53773236 34.56676016 24.46864396 31.96383945 21.36328125 29.375 C20 28 20 28 20 26 C19.01 25.67 18.02 25.34 17 25 C15.52954102 23.45288086 15.52954102 23.45288086 14.00390625 21.46484375 C13.44509766 20.73716797 12.88628906 20.00949219 12.31054688 19.25976562 C11.44526367 18.11024414 11.44526367 18.11024414 10.5625 16.9375 C9.98951172 16.19822266 9.41652344 15.45894531 8.82617188 14.69726562 C5.25541947 10.00063732 2.47456098 5.35648212 0 0 Z " fill="#FD6B70" transform="translate(339,407)"/>
<path d="M0 0 C0.99 0.33 1.98 0.66 3 1 C-6.88446584 21.30645551 -17.50768846 41.16868442 -30 60 C-30.70769531 61.06686035 -30.70769531 61.06686035 -31.4296875 62.15527344 C-37.59515646 71.39070311 -44.11828907 80.2878003 -51 89 C-51.64195312 89.825 -52.28390625 90.65 -52.9453125 91.5 C-61.78075148 102.73838263 -71.32521561 113.48070916 -81 124 C-81.56025879 124.61069336 -82.12051758 125.22138672 -82.69775391 125.85058594 C-96.58281176 140.94100642 -111.35835361 154.75367546 -127 168 C-127.67289063 168.57250488 -128.34578125 169.14500977 -129.0390625 169.73486328 C-139.29409591 178.4319574 -149.84577252 186.49007019 -161 194 C-161.69061523 194.4650293 -162.38123047 194.93005859 -163.09277344 195.40917969 C-199.55585788 219.79184121 -239.10195639 239.1671668 -284.05175781 230.609375 C-300.87799226 227.03741761 -315.81854454 218.06815215 -326 204 C-338.27761685 183.63592065 -338.42938371 161.91336798 -333.4375 139.3125 C-330.89925877 129.11701633 -326.96936636 114.16688062 -319 107 C-318.96261719 108.08796875 -318.92523438 109.1759375 -318.88671875 110.296875 C-318.09084807 129.59618772 -313.06133908 146.44753218 -299.0546875 160.33984375 C-284.2413788 173.89523542 -262.54574793 178.66865127 -242.97558594 177.92285156 C-195.66711431 174.82917108 -151.67388396 146.17677123 -115.72802734 117.37646484 C-113.9283904 115.94295918 -112.11665367 114.5261545 -110.30078125 113.11328125 C-104.52557056 108.61645932 -98.82311 104.12927819 -93.453125 99.14453125 C-92 98 -92 98 -90 98 C-90 97.34 -90 96.68 -90 96 C-88.70703125 94.6953125 -88.70703125 94.6953125 -86.8125 93.125 C-83.01683872 89.89935852 -79.33655652 86.57633207 -75.6875 83.1875 C-70.6376297 78.504893 -65.55417457 73.86359325 -60.4375 69.25390625 C-55.55575667 64.76080171 -55.55575667 64.76080171 -51.3125 59.6875 C-50.879375 59.130625 -50.44625 58.57375 -50 58 C-49.34 58 -48.68 58 -48 58 C-48 57.34 -48 56.68 -48 56 C-46.37531008 54.27049138 -44.71419474 52.63862699 -43 51 C-38.10047158 46.20120955 -33.33590657 41.35957348 -28.87109375 36.15234375 C-26.66920171 33.61947838 -24.39804174 31.15667478 -22.125 28.6875 C-17.20378088 23.28834761 -12.55562789 17.70927118 -8 12 C-7.31292969 11.14664063 -6.62585938 10.29328125 -5.91796875 9.4140625 C-2.34959379 5.05174687 -2.34959379 5.05174687 0 0 Z " fill="#FDA0A3" transform="translate(617,600)"/>
<path d="M0 0 C13.6881499 11.79798049 23.08775405 26.65380816 24.44921875 44.96875 C25.61002511 62.13210116 20.67343029 78.86048826 9.46679688 91.99902344 C-2.2269125 104.86538389 -17.71947616 113.20618845 -35.1953125 114.32421875 C-54.54009799 115.09125872 -68.67043321 109.20901735 -83.93359375 97.484375 C-84.73410156 96.73414063 -84.73410156 96.73414063 -85.55078125 95.96875 C-85.55078125 95.30875 -85.55078125 94.64875 -85.55078125 93.96875 C-86.21078125 93.96875 -86.87078125 93.96875 -87.55078125 93.96875 C-89.09756627 92.08465037 -90.48965951 90.22463801 -91.86328125 88.21875 C-92.26554932 87.63254883 -92.66781738 87.04634766 -93.08227539 86.44238281 C-100.51930821 75.27858521 -103.95377539 63.49767127 -103.86328125 50.15625 C-103.8576416 49.2796875 -103.85200195 48.403125 -103.84619141 47.5 C-103.52379965 30.21214114 -96.47607473 16.0196801 -84.390625 3.78125 C-61.03892197 -17.96425123 -25.1685941 -20.04237203 0 0 Z " fill="#FC4149" transform="translate(743.55078125,101.03125)"/>
<path d="M0 0 C1.42119141 0.09667969 1.42119141 0.09667969 2.87109375 0.1953125 C7.24598217 0.52576384 9.70833823 1.13306878 13 4 C14.19625 4.556875 15.3925 5.11375 16.625 5.6875 C29.86598663 12.17288121 40.82298284 24.34867638 48 37 C48.59375 38.984375 48.59375 38.984375 49 41 C49.99627048 44.01786934 51.0290634 47.02201893 52.0625 50.02734375 C57.33696131 66.75178149 54.22673655 85.39096937 46.4375 100.75 C39.35754906 113.76493712 27.77230407 123.55804714 13.75 128.375 C-2.82010825 132.89412043 -19.95256581 131.51023924 -35 123 C-38.07641322 121.09889838 -41.05249883 119.09395395 -44 117 C-45.485 116.01 -45.485 116.01 -47 115 C-47 114.34 -47 113.68 -47 113 C-47.90105469 112.5978125 -47.90105469 112.5978125 -48.8203125 112.1875 C-58.00935421 107.18128373 -63.04080029 94.35758866 -66.921875 85.25 C-67.90966889 82.86891437 -67.90966889 82.86891437 -70 81 C-69.34 81 -68.68 81 -68 81 C-68.32355469 79.73929687 -68.64710938 78.47859375 -68.98046875 77.1796875 C-71.59585503 65.35379409 -71.8035217 50.2310098 -67 39 C-66.52433594 37.87464844 -66.04867188 36.74929688 -65.55859375 35.58984375 C-61.95119913 27.56009852 -57.32918998 21.15245868 -51 15 C-50.06220703 14.03126953 -50.06220703 14.03126953 -49.10546875 13.04296875 C-35.68735592 0.07683446 -17.61085365 -1.84584348 0 0 Z " fill="#FEBFC1" transform="translate(527,223)"/>
<path d="M0 0 C4.09133231 2.25135471 7.42939022 5.00507422 10.8125 8.1875 C11.36728027 8.70650879 11.92206055 9.22551758 12.49365234 9.76025391 C14.3380459 11.49768181 16.17071186 13.2466782 18 15 C18.65564941 15.62696777 19.31129883 16.25393555 19.98681641 16.89990234 C29.15020121 25.71550555 37.47072701 34.75543283 45 45 C45.48903809 45.66016113 45.97807617 46.32032227 46.48193359 47.00048828 C48.89811856 50.26345623 51.30216807 53.53472023 53.6875 56.8203125 C54.96815865 58.58121814 56.25897079 60.33532581 57.58984375 62.05859375 C69.79290755 78.85893366 77.71204126 99.38500244 84 119 C84.22445801 119.69254883 84.44891602 120.38509766 84.68017578 121.09863281 C88 131.38677571 88 131.38677571 88 134 C87.34 134 86.68 134 86 134 C84.41799618 131.80040623 82.94928683 129.59754131 81.5 127.3125 C71.2632915 111.63644161 59.5386347 96.91691369 45 85 C43.31686426 83.34996678 41.64925814 81.68389523 40 80 C23.11833481 63.43905729 2.46095671 50.34538984 -18.2890625 39.17114258 C-19.00707031 38.78337646 -19.72507812 38.39561035 -20.46484375 37.99609375 C-21.100271 37.65763428 -21.73569824 37.3191748 -22.39038086 36.97045898 C-24 36 -24 36 -26 34 C-11.7809315 36.52273796 -1.00813642 44.65611087 10.32421875 53.16796875 C13.11151672 55.07635232 15.94943999 56.55734863 19 58 C19 58.66 19 59.32 19 60 C19.56976562 60.26167969 20.13953125 60.52335938 20.7265625 60.79296875 C24.85857646 62.98676998 28.36004033 66.08300296 32 69 C32.63292969 69.495 33.26585937 69.99 33.91796875 70.5 C35.31886413 71.61805427 36.66605014 72.80286551 38 74 C38 74.66 38 75.32 38 76 C38.55469971 76.06719238 39.10939941 76.13438477 39.6809082 76.20361328 C42.95768451 77.32887324 44.66597023 79.29447518 47.10546875 81.7421875 C47.58897293 82.22519318 48.07247711 82.70819885 48.57063293 83.20584106 C49.59537545 84.23292297 50.61642887 85.2636969 51.6340332 86.29785156 C53.15638156 87.84340718 54.69118625 89.37561221 56.22851562 90.90625 C62.58477054 97.28117366 68.4244428 103.9211499 74 111 C74.7014917 111.86737793 75.4029834 112.73475586 76.12573242 113.62841797 C78 116 78 116 80 119 C78.65594999 113.16033445 76.88946714 107.6940847 74.6875 102.125 C74.38062256 101.33851074 74.07374512 100.55202148 73.75756836 99.74169922 C71.73902161 94.64459263 69.51979185 89.73969084 66.84765625 84.9453125 C66 83 66 83 66 79 C64.515 78.505 64.515 78.505 63 78 C61.47991509 75.72713881 60.1288468 73.51013471 58.8125 71.125 C58.44447266 70.48691406 58.07644531 69.84882812 57.69726562 69.19140625 C55 64.39737941 55 64.39737941 55 61 C53.515 60.505 53.515 60.505 52 60 C50.61558 58.03501678 49.28796166 56.02951535 48 54 C47.2575 53.113125 46.515 52.22625 45.75 51.3125 C44 49 44 49 44 46 C43.38125 45.773125 42.7625 45.54625 42.125 45.3125 C39.3780195 43.61583557 39.13364727 41.94748289 38 39 C37.01 38.67 36.02 38.34 35 38 C33.5950193 36.01246632 32.46532236 33.93775809 31.28125 31.8125 C30.04672435 29.68661065 30.04672435 29.68661065 27 29 C25.45703125 27.43359375 25.45703125 27.43359375 23.8125 25.4375 C20.58173558 21.60614476 17.13120266 18.11928602 13.50390625 14.6640625 C12 13 12 13 12 11 C11.40445313 10.9071875 10.80890625 10.814375 10.1953125 10.71875 C7.49123431 9.83342903 6.61309813 8.72039762 4.875 6.5 C2.80112319 3.8119616 2.80112319 3.8119616 0 2 C0 1.34 0 0.68 0 0 Z " fill="#E8484E" transform="translate(789,502)"/>
<path d="M0 0 C0.58700684 0.21205078 1.17401367 0.42410156 1.77880859 0.64257812 C-1.40268767 4.11330132 -4.26509518 6.35770396 -8.46337891 8.61132812 C-11.31508835 10.284331 -13.70910091 12.50462877 -16.22119141 14.64257812 C-18.21490965 15.98528633 -20.21464761 17.31911307 -22.22119141 18.64257812 C-23.02556641 19.30257812 -23.82994141 19.96257813 -24.65869141 20.64257812 C-27.22119141 22.64257812 -27.22119141 22.64257812 -30.45947266 24.46289062 C-34.17425543 26.55629877 -37.55085246 28.98020579 -40.97119141 31.51757812 C-46.09850634 35.26189896 -51.28782343 38.46220124 -56.93212891 41.39257812 C-59.62381954 42.86244332 -61.9391616 44.59662037 -64.22119141 46.64257812 C-63.56119141 47.30257812 -62.90119141 47.96257813 -62.22119141 48.64257812 C-62.88119141 48.64257812 -63.54119141 48.64257812 -64.22119141 48.64257812 C-64.22119141 49.30257812 -64.22119141 49.96257813 -64.22119141 50.64257812 C-68.09593514 52.19851438 -71.97374124 53.74648123 -75.85449219 55.28735352 C-77.1724051 55.81190159 -78.48947889 56.33856331 -79.80566406 56.86743164 C-81.70498889 57.63018094 -83.60726859 58.3851092 -85.51025391 59.13867188 C-87.22269287 59.82207642 -87.22269287 59.82207642 -88.96972656 60.51928711 C-92.07095394 61.59067524 -94.97518512 62.21049384 -98.22119141 62.64257812 C-95.96272492 60.15957516 -93.71090215 58.6722781 -90.74853516 57.11132812 C-89.85755127 56.63590576 -88.96656738 56.1604834 -88.04858398 55.6706543 C-87.09491943 55.16638916 -86.14125488 54.66212402 -85.15869141 54.14257812 C-74.94475558 48.6595368 -65.03684695 42.80470002 -55.22119141 36.64257812 C-54.23248047 36.03027344 -53.24376953 35.41796875 -52.22509766 34.78710938 C-44.66325186 30.05674224 -37.34249173 24.97427716 -30.01757812 19.88818359 C-28.52751331 18.85498019 -27.03310764 17.82804034 -25.53759766 16.80273438 C-21.67380775 14.137827 -17.89647144 11.40345511 -14.19775391 8.51367188 C-13.48103516 7.95929443 -12.76431641 7.40491699 -12.02587891 6.83374023 C-10.59280018 5.7218522 -9.16798957 4.59921003 -7.75244141 3.46508789 C-7.09501953 2.95647217 -6.43759766 2.44785645 -5.76025391 1.92382812 C-5.17453613 1.46041016 -4.58881836 0.99699219 -3.98535156 0.51953125 C-2.22119141 -0.35742188 -2.22119141 -0.35742188 0 0 Z " fill="#F79696" transform="translate(428.22119140625,872.357421875)"/>
<path d="M0 0 C0.56976563 0.22042969 1.13953125 0.44085938 1.7265625 0.66796875 C-0.40614465 2.9534867 -2.54929405 4.54223495 -5.2109375 6.16796875 C-11.50936106 10.3127378 -16.86673493 15.45203487 -22.2734375 20.66796875 C-22.85883301 21.2314502 -23.44422852 21.79493164 -24.04736328 22.37548828 C-36.64730153 34.43703 -36.64730153 34.43703 -46.5859375 48.66796875 C-48.2734375 51.66796875 -48.2734375 51.66796875 -51.2734375 53.66796875 C-49.12443756 43.56766902 -42.60078493 36.66727593 -35.69921875 29.28515625 C-33.72083567 27.15066886 -31.86643551 24.97939291 -30.0234375 22.73046875 C-24.50965645 16.39548626 -8.53034109 -1.24584019 0 0 Z " fill="#F9B3B2" transform="translate(370.2734375,192.33203125)"/>
<path d="M0 0 C1.14118727 3.42356181 0.83881014 4.23735922 -0.25 7.5625 C-0.52972656 8.44550781 -0.80945313 9.32851563 -1.09765625 10.23828125 C-1.39542969 11.14964844 -1.69320313 12.06101562 -2 13 C-3.79225616 18.48928681 -5.29986069 23.1527165 -5 29 C-5.33 29.33 -5.66 29.66 -6 30 C-6.0999356 31.82071358 -6.13080933 33.64529694 -6.1328125 35.46875 C-6.13410156 36.59796875 -6.13539063 37.7271875 -6.13671875 38.890625 C-6.13285156 40.08171875 -6.12898438 41.2728125 -6.125 42.5 C-6.12886719 43.66015625 -6.13273437 44.8203125 -6.13671875 46.015625 C-6.129458 52.4341292 -5.82056179 58.63580032 -5 65 C-4.96599348 66.6663197 -4.94626451 68.33419981 -5 70 C-5.66666667 68.66666667 -6.33333333 67.33333333 -7 66 C-7.350625 65.401875 -7.70125 64.80375 -8.0625 64.1875 C-14.58374795 48.97125479 -9.84388337 25.94654393 -5.5625 10.8125 C-5.35729736 10.08063477 -5.15209473 9.34876953 -4.94067383 8.59472656 C-3.87318028 5.0461559 -3.02651301 2.28532615 0 0 Z " fill="#F6ABA9" transform="translate(312,258)"/>
<path d="M0 0 C8.48987345 0.43994541 16.31372551 2.14656532 24.5 4.375 C25.64597656 4.67921875 26.79195312 4.9834375 27.97265625 5.296875 C30.23546762 5.89926165 32.49682904 6.50712551 34.7565918 7.12084961 C36.87800488 7.69587471 39.0018109 8.26216124 41.12817383 8.81860352 C42.5748645 9.20036743 42.5748645 9.20036743 44.05078125 9.58984375 C44.89552002 9.81019287 45.74025879 10.03054199 46.6105957 10.25756836 C50.32968181 11.41315647 53.58868819 13.13343316 57 15 C57 15.99 57 16.98 57 18 C40.23105285 17.48797108 23.62422503 15.11645225 7 13 C7 12.67 7 12.34 7 12 C15.27052609 11.80084352 23.1889566 12.34835131 31.375 13.5 C40.15090262 14.7778287 40.15090262 14.7778287 49 15 C33.05233354 8.48225806 16.87991418 4.31669005 0 1 C0 0.67 0 0.34 0 0 Z " fill="#F26062" transform="translate(619,462)"/>
<path d="M0 0 C0 0.99 0 1.98 0 3 C-2.23976166 4.67453166 -4.4427579 6.15651545 -6.8125 7.625 C-12.79300108 11.45529607 -18.25704508 15.51141466 -23.69140625 20.08984375 C-26.35602219 22.29457673 -29.07034245 24.16896403 -32 26 C-32.99 26.66 -33.98 27.32 -35 28 C-34.52758009 23.74822077 -32.15035929 21.70030797 -29 19 C-28.01 19 -27.02 19 -26 19 C-26 18.34 -26 17.68 -26 17 C-25.34 17 -24.68 17 -24 17 C-23.98066406 15.92234375 -23.96132813 14.8446875 -23.94140625 13.734375 C-23 10 -23 10 -19.90234375 7.890625 C-18.59288569 7.3152495 -17.27014805 6.7694098 -15.9375 6.25 C-15.2580835 5.9605249 -14.57866699 5.6710498 -13.87866211 5.37280273 C-11.92983873 4.55130159 -9.97002151 3.76903181 -8 3 C-6.62714844 2.45279297 -6.62714844 2.45279297 -5.2265625 1.89453125 C-3.49688845 1.22951217 -1.75073946 0.6073994 0 0 Z " fill="#F4A9A7" transform="translate(408,173)"/>
<path d="M0 0 C9.08827497 0.9209452 16.6410836 2.24361579 25 6 C27.28753179 6.88575359 29.5794158 7.76032995 31.875 8.625 C35.34658002 9.93834473 38.71432612 11.26986255 42 13 C42 13.66 42 14.32 42 15 C42.53367187 15.15855469 43.06734375 15.31710937 43.6171875 15.48046875 C49.74868303 17.40053915 55.32459514 20.00234357 61 23 C60.01 23.495 60.01 23.495 59 24 C56.69458008 23.18652344 56.69458008 23.18652344 53.76953125 21.859375 C52.6702832 21.37049805 51.57103516 20.88162109 50.43847656 20.37792969 C48.64361816 19.57210449 48.64361816 19.57210449 46.8125 18.75 C35.9466355 13.94448449 24.96634056 9.66663531 13.75 5.75 C12.71197739 5.38739075 12.71197739 5.38739075 11.65298462 5.01745605 C7.77302977 3.66542328 3.88866967 2.32679701 0 1 C0 0.67 0 0.34 0 0 Z " fill="#F2555A" transform="translate(696,509)"/>
<path d="M0 0 C0.66 0.33 1.32 0.66 2 1 C-0.18372353 3.4173871 -2.16283063 4.71754435 -5.140625 6.015625 C-5.9567627 6.37648193 -6.77290039 6.73733887 -7.61376953 7.10913086 C-8.48372559 7.48561768 -9.35368164 7.86210449 -10.25 8.25 C-12.06564689 9.04694175 -13.88074672 9.84513095 -15.6953125 10.64453125 C-16.59411133 11.03979004 -17.49291016 11.43504883 -18.41894531 11.84228516 C-21.39725204 13.17818475 -24.32814109 14.59697756 -27.26049805 16.0300293 C-33.42933801 19.03246195 -39.16389027 21.21183676 -46 22 C-43.86156707 18.66494646 -42.48527143 17.50915402 -38.63671875 16.625 C-32.00298657 14.84283924 -26.00299537 11.93738119 -19.8125 9 C-15.54388646 6.99522858 -11.27356958 4.99418584 -7 3 C-5.86763916 2.46632813 -5.86763916 2.46632813 -4.71240234 1.921875 C-3.16838727 1.21914251 -1.58776791 0.59733454 0 0 Z " fill="#F58D8E" transform="translate(413,898)"/>
<path d="M0 0 C0.66 0.33 1.32 0.66 2 1 C-9.55 12.55 -21.1 24.1 -33 36 C-33.66 35.34 -34.32 34.68 -35 34 C-28.23039787 26.66960243 -21.4488287 19.35081599 -14.4375 12.25 C-13.9621582 11.76176758 -13.48681641 11.27353516 -12.99707031 10.77050781 C-10.20983218 7.97535701 -7.42288303 5.94350138 -4 4 C-2.63015802 2.70420353 -1.2848951 1.38007251 0 0 Z " fill="#F77C7F" transform="translate(535,778)"/>
<path d="M0 0 C0 0.99 0 1.98 0 3 C-1 4 -2 5 -3 6 C-3.12375 6.598125 -3.2475 7.19625 -3.375 7.8125 C-4.94900748 13.32152616 -10.11625788 17.04421816 -14.37109375 20.5546875 C-16.20201245 22.09428293 -16.20201245 22.09428293 -18.125 24.6875 C-20.19411847 27.23941279 -22.17246631 28.37416813 -25 30 C-26.36984198 31.29579647 -27.7151049 32.61992749 -29 34 C-29.66 33.67 -30.32 33.34 -31 33 C-30.14277344 32.154375 -29.28554688 31.30875 -28.40234375 30.4375 C-20.3812306 22.50137391 -20.3812306 22.50137391 -12.83203125 14.12109375 C-10.3021234 11.19201067 -7.68226235 8.34866959 -5.0625 5.5 C-4.56476074 4.95851318 -4.06702148 4.41702637 -3.55419922 3.85913086 C-2.3702012 2.57207732 -1.18520771 1.28593965 0 0 Z " fill="#F1696C" transform="translate(558,751)"/>
<path d="M0 0 C0.99 0.33 1.98 0.66 3 1 C0.94766315 3.2477975 -0.00667261 4.0022242 -3 5 C-4.57307672 6.66562068 -4.57307672 6.66562068 -6.125 8.6875 C-9.35393108 12.51971332 -12.74752782 15.03834502 -16.9765625 17.6796875 C-19.2986235 19.19485472 -21.16455869 20.9251533 -23 23 C-23.99 22.67 -24.98 22.34 -26 22 C-20.69424616 16.55869771 -14.87759638 11.80487917 -9 7 C-7.67548828 5.89205078 -7.67548828 5.89205078 -6.32421875 4.76171875 C-5.53660156 4.11847656 -4.74898438 3.47523438 -3.9375 2.8125 C-3.24527344 2.24144531 -2.55304688 1.67039062 -1.83984375 1.08203125 C-1.23269531 0.72496094 -0.62554687 0.36789062 0 0 Z " fill="#F68A8C" transform="translate(457,848)"/>
<path d="M0 0 C13.62272348 2.41693481 23.99658979 10.04008623 35 18 C34.01 18.495 34.01 18.495 33 19 C28.2483208 17.23672627 24.15266797 14.98508182 19.875 12.25 C13.39866707 8.18818841 6.7717369 4.54657251 0 1 C0 0.67 0 0.34 0 0 Z " fill="#F3545B" transform="translate(763,536)"/>
<path d="M0 0 C0 0.99 0 1.98 0 3 C-1 4 -2 5 -3 6 C-3 6.99 -3 7.98 -3 9 C-4.46875 10.80932617 -4.46875 10.80932617 -6.5 12.79296875 C-7.221875 13.50517578 -7.94375 14.21738281 -8.6875 14.95117188 C-9.450625 15.68916016 -10.21375 16.42714844 -11 17.1875 C-11.763125 17.93708984 -12.52625 18.68667969 -13.3125 19.45898438 C-15.20180839 21.31286823 -17.09775206 23.15941069 -19 25 C-19.99 24.67 -20.98 24.34 -22 24 C-17.1474205 18.37634382 -12.15969463 12.902326 -7.0625 7.5 C-6.37865234 6.77296875 -5.69480469 6.0459375 -4.99023438 5.296875 C-3.32805493 3.53008286 -1.66463361 1.76447952 0 0 Z " fill="#F98285" transform="translate(593,631)"/>
<path d="M0 0 C3.56917061 1.5414201 6.08217769 3.69475459 8.9375 6.3125 C10.24654297 7.51132812 10.24654297 7.51132812 11.58203125 8.734375 C14.11347266 11.10632333 16.58785101 13.50744604 19 16 C18.67 16.66 18.34 17.32 18 18 C16.68 17.01 15.36 16.02 14 15 C13.67 15.66 13.34 16.32 13 17 C8.44961056 15.50755576 6.61874332 11.80696182 4.25 7.9375 C3.83878906 7.28716797 3.42757813 6.63683594 3.00390625 5.96679688 C0 1.17152461 0 1.17152461 0 0 Z " fill="#F89295" transform="translate(339,407)"/>
<path d="M0 0 C4.43157544 0.50358812 8.61800232 1.37769705 12.9375 2.5 C16.37888975 3.38713285 19.71617006 4.17914567 23.25 4.5625 C27.32483724 5.03789768 31.04209628 5.93984722 35 7 C35 7.66 35 8.32 35 9 C36.2375 9.12375 37.475 9.2475 38.75 9.375 C41.94678692 9.69467869 44.16136167 10.51829318 47 12 C37.89146941 11.60832485 29.4239745 9.48852627 20.6875 7.0625 C19.34331681 6.6977639 17.99891646 6.33382712 16.65429688 5.97070312 C11.05294877 4.44773366 5.49515893 2.87752565 0 1 C0 0.67 0 0.34 0 0 Z " fill="#F38283" transform="translate(427,435)"/>
<path d="M0 0 C1.4540625 0.0309375 1.4540625 0.0309375 2.9375 0.0625 C1.98519705 6.49054489 -3.20001169 10.2915907 -8.0625 14.0625 C-9.70855826 15.09607147 -11.37213442 16.10310332 -13.0625 17.0625 C-14.0525 17.7225 -15.0425 18.3825 -16.0625 19.0625 C-15.59008009 14.81072077 -13.21285929 12.76280797 -10.0625 10.0625 C-9.0725 10.0625 -8.0825 10.0625 -7.0625 10.0625 C-7.0625 9.4025 -7.0625 8.7425 -7.0625 8.0625 C-6.4025 8.0625 -5.7425 8.0625 -5.0625 8.0625 C-4.918125 6.928125 -4.77375 5.79375 -4.625 4.625 C-3.90732759 0.07974138 -3.90732759 0.07974138 0 0 Z " fill="#F6B0AF" transform="translate(389.0625,181.9375)"/>
<path d="M0 0 C0.33 0.66 0.66 1.32 1 2 C0.33837891 3.65722656 0.33837891 3.65722656 -0.7734375 5.640625 C-1.18223145 6.37555176 -1.59102539 7.11047852 -2.01220703 7.86767578 C-2.46192871 8.65384277 -2.91165039 9.44000977 -3.375 10.25 C-3.82601074 11.05034668 -4.27702148 11.85069336 -4.74169922 12.67529297 C-8.8898032 19.96234613 -13.3551958 27.02157437 -18 34 C-18.66 32.68 -19.32 31.36 -20 30 C-19.01 29.67 -18.02 29.34 -17 29 C-16.6278958 27.67696283 -16.29369827 26.34262065 -16 25 C-15.34 24.67 -14.68 24.34 -14 24 C-12.95281202 21.68745988 -11.95653635 19.3514852 -11 17 C-9.2 13.2 -9.2 13.2 -8 12 C-7.525625 11.05125 -7.05125 10.1025 -6.5625 9.125 C-4.76817649 5.53635298 -2.88629956 2.75510413 0 0 Z " fill="#F46F71" transform="translate(608,621)"/>
<path d="M0 0 C0.66 0.33 1.32 0.66 2 1 C1.34 1.66 0.68 2.32 0 3 C0 3.99 0 4.98 0 6 C-3.76198764 10.10738105 -8.22984134 13.18682951 -13 16 C-14.8184609 17.56330937 -16.59541924 19.15999391 -18.3515625 20.79296875 C-20 22 -20 22 -23 22 C-18.11214471 17.01031439 -13.16548777 12.18840935 -7.86328125 7.640625 C-5.11033016 5.21664291 -2.56087877 2.62490074 0 0 Z " fill="#F37A7C" transform="translate(552,673)"/>
<path d="M0 0 C0.99 0.33 1.98 0.66 3 1 C1.73412642 3.58587003 0.46254151 6.16865501 -0.8125 8.75 C-1.16892578 9.47960937 -1.52535156 10.20921875 -1.89257812 10.9609375 C-3.67530517 14.55910218 -5.41088339 17.89632709 -8 21 C-9.4606285 18.35261084 -10 17.10551666 -10 14 C-8.59208227 12.11139925 -7.10006941 10.28463594 -5.5625 8.5 C-2.14081908 4.61639347 -2.14081908 4.61639347 0 0 Z " fill="#F57579" transform="translate(617,600)"/>
<path d="M0 0 C0.33 0.99 0.66 1.98 1 3 C-0.46755225 5.30315853 -1.96241018 7.40810148 -3.625 9.5625 C-7.76672227 15.11324689 -11.21158765 20.63067917 -14 27 C-14.66 27 -15.32 27 -16 27 C-16.33 27.66 -16.66 28.32 -17 29 C-15.42170453 18.19167283 -7.58754164 7.58754164 0 0 Z " fill="#F9B1AF" transform="translate(370,203)"/>
<path d="M0 0 C0.33 0 0.66 0 1 0 C1.02505615 0.58378418 1.0501123 1.16756836 1.07592773 1.76904297 C1.19356199 4.47116313 1.31551273 7.17307299 1.4375 9.875 C1.47681641 10.7928125 1.51613281 11.710625 1.55664062 12.65625 C1.83776388 18.7977119 2.32318013 24.88952074 3 31 C3.66 31 4.32 31 5 31 C6.905247 36.10334017 8.42589023 40.46342706 8 46 C5.05448289 42.62527897 4.03865515 39.35519637 2.875 35.0625 C2.54242188 33.85722656 2.20984375 32.65195312 1.8671875 31.41015625 C0.65813822 26.65565166 -0.12513045 22.39835095 -0.09765625 17.48046875 C-0.09443359 16.45888672 -0.09121094 15.43730469 -0.08789062 14.38476562 C-0.07951172 13.32966797 -0.07113281 12.27457031 -0.0625 11.1875 C-0.05798828 10.11306641 -0.05347656 9.03863281 -0.04882812 7.93164062 C-0.03707729 5.28770317 -0.02064787 2.64388048 0 0 Z " fill="#FAB9B9" transform="translate(348,248)"/>
<path d="M0 0 C6.53329863 1.34415769 12.75347309 3.11614638 19.06640625 5.2578125 C19.98590561 5.56572723 20.90540497 5.87364197 21.85276794 6.19088745 C24.75746244 7.16466707 27.65999365 8.14472001 30.5625 9.125 C32.54478164 9.79078226 34.52720227 10.45615086 36.50976562 11.12109375 C41.34146314 12.74261968 46.17123234 14.36977095 51 16 C47.89105001 17.0053557 46.10860724 16.99082681 43.02929688 15.93603516 C42.26170044 15.67891754 41.494104 15.42179993 40.70324707 15.15689087 C39.88336304 14.87050751 39.063479 14.58412415 38.21875 14.2890625 C37.36825073 14.00147064 36.51775146 13.71387878 35.64147949 13.41757202 C32.92418899 12.49654903 30.21208454 11.56122908 27.5 10.625 C24.78694081 9.6990117 22.07290586 8.77594417 19.35852051 7.85385132 C17.6702604 7.27917679 15.9829629 6.70166471 14.29675293 6.1210022 C13.14535828 5.72586929 13.14535828 5.72586929 11.97070312 5.32275391 C11.29881958 5.09101471 10.62693604 4.85927551 9.93469238 4.62051392 C7.98678385 3.96586409 7.98678385 3.96586409 5.89245605 3.51498413 C3.46614025 2.85472355 1.92602076 1.58208848 0 0 Z " fill="#FEB3B5" transform="translate(475,377)"/>
<path d="M0 0 C0.66 0.33 1.32 0.66 2 1 C0.989375 1.66 -0.02125 2.32 -1.0625 3 C-5.41290523 6.10743231 -8.59972654 9.91219872 -12 14 C-13.30868822 15.50332678 -14.62106654 17.0034509 -15.9375 18.5 C-16.52402344 19.1703125 -17.11054687 19.840625 -17.71484375 20.53125 C-18.35099609 21.25828125 -18.35099609 21.25828125 -19 22 C-19.76953125 20.33203125 -19.76953125 20.33203125 -20 18 C-14.85278098 10.44688985 -7.68973865 4.7938158 0 0 Z " fill="#EC3F47" transform="translate(671,96)"/>
<path d="M0 0 C0.99 0 1.98 0 3 0 C1.49262464 4.41445642 -0.89594753 7.95468171 -3.625 11.6875 C-4.28508057 12.60136475 -4.28508057 12.60136475 -4.95849609 13.53369141 C-8.80670023 18.82237008 -12.83801343 23.95446321 -17 29 C-17 26.33579484 -16.90837763 24.47739354 -16 22 C-15.01 21.67 -14.02 21.34 -13 21 C-12.71125 20.2575 -12.4225 19.515 -12.125 18.75 C-10.72612922 15.3305381 -8.59936852 13.59936852 -6 11 C-4.20679176 7.83354526 -4.20679176 7.83354526 -3 5 C-2.34 5 -1.68 5 -1 5 C-0.67 3.35 -0.34 1.7 0 0 Z " fill="#F26869" transform="translate(582,661)"/>
<path d="M0 0 C0.33 0.66 0.66 1.32 1 2 C1.66 2 2.32 2 3 2 C3.83661862 4.7907207 4.66942737 7.58248012 5.5 10.375 C5.73847656 11.1690625 5.97695313 11.963125 6.22265625 12.78125 C6.44824219 13.54179688 6.67382812 14.30234375 6.90625 15.0859375 C7.22045898 16.1385376 7.22045898 16.1385376 7.54101562 17.21240234 C8 19 8 19 8 21 C7.34 21 6.68 21 6 21 C2.28292935 16.56317827 -0.85538972 11.92902139 -1 6 C-0.67 5.34 -0.34 4.68 0 4 C0 2.68 0 1.36 0 0 Z " fill="#EF565D" transform="translate(869,615)"/>
<path d="M0 0 C4.74759397 0.53151432 8.16691495 2.7305905 12.0625 5.3125 C12.67416016 5.70373047 13.28582031 6.09496094 13.91601562 6.49804688 C17.3193768 8.71667043 20.23456475 10.98629625 23 14 C21.1875 14.6875 21.1875 14.6875 19 15 C17.98791674 14.01223106 16.99084725 13.00906973 16 12 C14.22883787 10.84298697 12.43470862 9.72074138 10.625 8.625 C6.5263267 6.0680793 3.18204298 3.62094546 0 0 Z " fill="#F7A2A4" transform="translate(393,336)"/>
<path d="M0 0 C3.12403127 3.12403127 4.19524752 6.41645387 5.3125 10.625 C6.68696778 15.42495486 8.70588953 19.60379938 11.109375 23.96875 C11.40328125 24.6390625 11.6971875 25.309375 12 26 C11.67 26.66 11.34 27.32 11 28 C5.93211605 23.45637991 3.94406989 18.43229094 2.47265625 11.953125 C1.97473208 9.75937279 1.97473208 9.75937279 0.875 6.75 C0 4 0 4 0 0 Z " fill="#F8B1B1" transform="translate(308,332)"/>
<path d="M0 0 C4.04209901 2.92557516 6.55563618 5.93948064 9.25 10.125 C9.93578125 11.17945313 10.6215625 12.23390625 11.328125 13.3203125 C14.05224339 17.68653964 14.05224339 17.68653964 13.5625 20.625 C13.376875 21.40875 13.19125 22.1925 13 23 C10.51778743 19.84426023 8.50038239 16.54123517 6.5 13.0625 C3.94199204 8.62355924 3.94199204 8.62355924 1.28125 4.24609375 C0 2 0 2 0 0 Z " fill="#F8BABA" transform="translate(562,244)"/>
<path d="M0 0 C5.17547571 -0.67809701 8.35074259 1.6078159 12.5625 4.25 C13.22185547 4.64574219 13.88121094 5.04148437 14.56054688 5.44921875 C18.14217715 7.64499208 21.16296628 9.85255292 24 13 C23.01 13.495 23.01 13.495 22 14 C19.46875 12.890625 19.46875 12.890625 16.5 11.25 C15.5203125 10.71890625 14.540625 10.1878125 13.53125 9.640625 C11 8 11 8 9 5 C7.08192213 4.06984743 7.08192213 4.06984743 4.9375 3.4375 C2.77734375 2.74609375 2.77734375 2.74609375 1 2 C0.67 1.34 0.34 0.68 0 0 Z " fill="#F48083" transform="translate(360,426)"/>
<path d="M0 0 C0.54398437 0.27070313 1.08796875 0.54140625 1.6484375 0.8203125 C-2.3515625 4.8203125 -6.3515625 8.8203125 -10.3515625 12.8203125 C-10.86549561 13.37549561 -11.37942871 13.93067871 -11.90893555 14.50268555 C-13.3515625 15.8203125 -13.3515625 15.8203125 -15.3515625 15.8203125 C-13.92093688 11.22547961 -11.32177844 8.27292204 -7.9765625 4.9453125 C-7.49445313 4.43484375 -7.01234375 3.924375 -6.515625 3.3984375 C-2.91408975 -0.22267131 -2.91408975 -0.22267131 0 0 Z " fill="#F9BDBC" transform="translate(482.3515625,234.1796875)"/>
<path d="M0 0 C0.66 0.33 1.32 0.66 2 1 C-3.73732982 7.31106281 -10.3192141 13.03968016 -19 14 C-19 13.34 -19 12.68 -19 12 C-18.01 12 -17.02 12 -16 12 C-16 11.34 -16 10.68 -16 10 C-15.01 10 -14.02 10 -13 10 C-13 9.34 -13 8.68 -13 8 C-12.01 8 -11.02 8 -10 8 C-10 7.34 -10 6.68 -10 6 C-9.36191406 5.65066406 -8.72382813 5.30132813 -8.06640625 4.94140625 C-7.24011719 4.48636719 -6.41382813 4.03132812 -5.5625 3.5625 C-4.73878906 3.11003906 -3.91507812 2.65757812 -3.06640625 2.19140625 C-1.07691202 1.16337603 -1.07691202 1.16337603 0 0 Z " fill="#F17375" transform="translate(515,838)"/>
<path d="M0 0 C0 3.68563771 -1.27136406 4.69391592 -3.7109375 7.3046875 C-5.13669536 8.99587792 -5.13669536 8.99587792 -5.8125 11.36328125 C-7.37071751 14.82313921 -9.80056353 16.89309059 -12.625 19.3125 C-13.3984375 19.9940918 -13.3984375 19.9940918 -14.1875 20.68945312 C-15.4512443 21.80108006 -16.72467176 22.9016822 -18 24 C-18 19.94765773 -16.50679785 19.08213774 -13.75 16.1875 C-9.96954086 12.15616512 -9.96954086 12.15616512 -6.75 7.6875 C-4.81332764 4.71332459 -2.57386195 2.43086962 0 0 Z " fill="#F16164" transform="translate(578,727)"/>
<path d="M0 0 C1.15615238 3.4384272 1.07528698 3.84363473 -0.625 7.375 C-0.99625 8.05820312 -1.3675 8.74140625 -1.75 9.4453125 C-3.85723191 13.75196771 -5.29876532 18.29830902 -6.8515625 22.828125 C-7.76344857 25.34666747 -8.7313745 27.64896925 -10 30 C-9.63777281 24.60406386 -8.81566869 19.98525493 -6.7578125 14.98046875 C-5.96982756 12.92114728 -5.43735721 10.8962123 -4.9375 8.75 C-4.2037856 5.81514238 -3.61568543 3.52450849 -2 1 C-1.34 0.67 -0.68 0.34 0 0 Z " fill="#F8B4B4" transform="translate(295,714)"/>
<path d="M0 0 C0.99 0.33 1.98 0.66 3 1 C-1.95 5.62 -6.9 10.24 -12 15 C-12.66 14.34 -13.32 13.68 -14 13 C-10.11016202 7.85537557 -5.60465555 3.28512582 0 0 Z " fill="#F68487" transform="translate(475,833)"/>
<path d="M0 0 C0.33 0.99 0.66 1.98 1 3 C-4.61 5.97 -10.22 8.94 -16 12 C-16.99 11.34 -17.98 10.68 -19 10 C-18.34 10 -17.68 10 -17 10 C-16.67 9.34 -16.34 8.68 -16 8 C-14.41772461 7.03857422 -14.41772461 7.03857422 -12.40234375 6.0546875 C-11.68369141 5.70019531 -10.96503906 5.34570312 -10.22460938 4.98046875 C-9.46986328 4.61566406 -8.71511719 4.25085938 -7.9375 3.875 C-7.17888672 3.50246094 -6.42027344 3.12992188 -5.63867188 2.74609375 C-3.76174913 1.8253392 -1.88120604 0.91197136 0 0 Z " fill="#F58A8B" transform="translate(446,881)"/>
<path d="M0 0 C0.33 0 0.66 0 1 0 C1.13277344 1.26714844 1.26554687 2.53429687 1.40234375 3.83984375 C1.58071494 5.53906399 1.75910116 7.23828266 1.9375 8.9375 C2.02451172 9.76830078 2.11152344 10.59910156 2.20117188 11.45507812 C2.71385606 16.33507206 3.24534465 21.21194619 3.8125 26.0859375 C4.03899001 28.39802298 4.07487828 30.67877339 4 33 C0.04698627 25.65868879 -0.25613733 19.31603941 -0.125 11.125 C-0.11597656 10.05507813 -0.10695313 8.98515625 -0.09765625 7.8828125 C-0.07419342 5.25497561 -0.04136459 2.62760594 0 0 Z " fill="#FDBEBF" transform="translate(303,295)"/>
<path d="M0 0 C0.66 1.32 1.32 2.64 2 4 C0.59290434 5.48827426 -0.82606201 6.96533185 -2.25 8.4375 C-3.43335938 9.67306641 -3.43335938 9.67306641 -4.640625 10.93359375 C-6.90734717 12.91885207 -8.0671937 13.6300359 -11 14 C-9.42219077 10.28954753 -7.09296752 7.70093616 -4.375 4.75 C-3.55773437 3.85796875 -2.74046875 2.9659375 -1.8984375 2.046875 C-1.27195312 1.37140625 -0.64546875 0.6959375 0 0 Z " fill="#F77A7D" transform="translate(605,617)"/>
<path d="M0 0 C0.46148437 0.35191406 0.92296875 0.70382812 1.3984375 1.06640625 C6.83765655 5.18344359 12.39245772 9.11608752 18 13 C17.01 13.495 17.01 13.495 16 14 C9.95408934 11.94439037 2.99579727 8.5544199 -0.23046875 2.80859375 C-0.48441406 2.21175781 -0.73835938 1.61492187 -1 1 C-0.67 0.67 -0.34 0.34 0 0 Z " fill="#F5797B" transform="translate(380,449)"/>
<path d="M0 0 C4.16259759 1.4800347 7.58509308 3.5446929 11.25 6 C12.83554687 7.051875 12.83554687 7.051875 14.453125 8.125 C17 10 17 10 18 12 C17.29875 11.71125 16.5975 11.4225 15.875 11.125 C12.94547497 9.97866412 9.99078347 8.97374346 7 8 C7 7.34 7 6.68 7 6 C5.8553125 5.5978125 5.8553125 5.5978125 4.6875 5.1875 C2.12619116 4.05575888 0.80307062 3.08776599 -1 1 C-0.67 0.67 -0.34 0.34 0 0 Z " fill="#E95458" transform="translate(755,478)"/>
<path d="M0 0 C0.33 0 0.66 0 1 0 C1.06058594 1.12277344 1.12117188 2.24554687 1.18359375 3.40234375 C1.60294982 10.96340965 2.04339834 18.4838441 3 26 C0.70407265 22.55610898 0.15023343 19.42352769 -0.5625 15.4375 C-1.33552171 10.58237672 -1.33552171 10.58237672 -3 6 C-2.06553465 3.96855359 -1.06775224 1.96466413 0 0 Z " fill="#E78E8E" transform="translate(297,707)"/>
<path d="M0 0 C0 0.66 0 1.32 0 2 C-1.65 2.66 -3.3 3.32 -5 4 C-4.67 4.66 -4.34 5.32 -4 6 C-5.76641683 6.6987693 -7.53832664 7.38366583 -9.3125 8.0625 C-10.29863281 8.44535156 -11.28476562 8.82820312 -12.30078125 9.22265625 C-15 10 -15 10 -18 9 C-15.37785672 7.49480613 -12.75255792 5.99568681 -10.125 4.5 C-9.37863281 4.07074219 -8.63226563 3.64148438 -7.86328125 3.19921875 C-7.14785156 2.79316406 -6.43242187 2.38710938 -5.6953125 1.96875 C-5.03547363 1.59169922 -4.37563477 1.21464844 -3.69580078 0.82617188 C-2 0 -2 0 0 0 Z " fill="#DF8484" transform="translate(348,925)"/>
<path d="M0 0 C3.5667949 1.44536787 5.18530899 3.19740946 7.3125 6.375 C7.84488281 7.14585937 8.37726563 7.91671875 8.92578125 8.7109375 C10 11 10 11 9.66796875 13.2890625 C9.44753906 13.85367187 9.22710937 14.41828125 9 15 C7.67981412 13.25579087 6.36911398 11.50439909 5.0625 9.75 C4.33160156 8.77546875 3.60070312 7.8009375 2.84765625 6.796875 C1.24654921 4.3732119 0.42363762 2.8242508 0 0 Z " fill="#F7ABAC" transform="translate(357,296)"/>
<path d="M0 0 C0.99 0.33 1.98 0.66 3 1 C1.68 1.33 0.36 1.66 -1 2 C-1 2.66 -1 3.32 -1 4 C-4.0469629 5.69433918 -6.82821466 6.49467112 -10.25 7.125 C-11.58804687 7.37636719 -11.58804687 7.37636719 -12.953125 7.6328125 C-13.62859375 7.75398437 -14.3040625 7.87515625 -15 8 C-12.74941397 4.39757682 -11.0239406 3.3536697 -6.9375 2.3125 C-3.37615254 1.40179985 -3.37615254 1.40179985 0 0 Z " fill="#F99C9D" transform="translate(382,912)"/>
<path d="M0 0 C9.41002278 -0.3690205 9.41002278 -0.3690205 14 2 C13.34 3.32 12.68 4.64 12 6 C8.04 4.35 4.08 2.7 0 1 C0 0.67 0 0.34 0 0 Z " fill="#FE888B" transform="translate(625,475)"/>
<path d="M0 0 C0.66 0.33 1.32 0.66 2 1 C-1.66505414 4.99824088 -5.11112852 7.60168569 -10 10 C-10.66 9.67 -11.32 9.34 -12 9 C-8.63378119 5.21300384 -4.58358196 2.1727369 0 0 Z " fill="#EE7575" transform="translate(491,854)"/>
<path d="M0 0 C2.99220268 1.36370299 5.29026529 2.94908083 7.75 5.125 C8.67039062 5.93324219 8.67039062 5.93324219 9.609375 6.7578125 C10.06828125 7.16773438 10.5271875 7.57765625 11 8 C10.01 8.495 10.01 8.495 9 9 C8.34 8.67 7.68 8.34 7 8 C7.66 9.65 8.32 11.3 9 13 C4.66965806 9.15080717 2.3439244 5.27710354 0 0 Z " fill="#EA8080" transform="translate(339,407)"/>
<path d="M0 0 C3.45202059 1.35106012 6.8388047 2.78424308 10.1875 4.375 C11.04730469 4.77460938 11.90710938 5.17421875 12.79296875 5.5859375 C15.2454902 7.15728753 15.97744009 8.31506616 17 11 C13.09544063 9.57497833 9.75164038 7.73347873 6.25 5.5 C5.28578125 4.8915625 4.3215625 4.283125 3.328125 3.65625 C1 2 1 2 0 0 Z " fill="#F18D8C" transform="translate(357,401)"/>
<path d="M0 0 C3.88609811 1.75066796 7.27812258 4.18324006 10.75 6.625 C11.35199219 7.04523438 11.95398438 7.46546875 12.57421875 7.8984375 C14.05113043 8.92993137 15.52579194 9.96464579 17 11 C16.01 11.33 15.02 11.66 14 12 C12.63461347 11.04422943 11.30518475 10.03647024 10 9 C9.195625 8.7525 8.39125 8.505 7.5625 8.25 C3.83275879 6.43061404 2.16688607 3.44857612 0 0 Z " fill="#FAB0B2" transform="translate(349,393)"/>
<path d="M0 0 C2.625 -0.0625 2.625 -0.0625 6 1 C9.15659117 4.57604811 12 8.13595124 12 13 C7.80573972 9.80871501 5.83776063 7.98820742 4 3 C1.98682781 1.19651922 1.98682781 1.19651922 0 0 Z " fill="#F1494E" transform="translate(689,507)"/>
<path d="M0 0 C5.31027254 1.46032495 9.46330032 3.98320986 14 7 C12 8 12 8 10.1953125 7.546875 C2.82972306 4.71181793 2.82972306 4.71181793 0 2 C0 1.34 0 0.68 0 0 Z " fill="#EA585C" transform="translate(741,470)"/>
<path d="M0 0 C5.274432 0.53820735 9.33336702 1.57335085 14 4 C14.33 4.99 14.66 5.98 15 7 C9.76727367 5.36041242 4.84803364 3.61047965 0 1 C0 0.67 0 0.34 0 0 Z " fill="#F77A7D" transform="translate(386,441)"/>
<path d="M0 0 C0.66 0.33 1.32 0.66 2 1 C-0.97 4.3 -3.94 7.6 -7 11 C-7.99 10.34 -8.98 9.68 -10 9 C-6.7 6.03 -3.4 3.06 0 0 Z " fill="#F4A9A7" transform="translate(358,199)"/>
<path d="M0 0 C-0.99 0 -1.98 0 -3 0 C-3 0.66 -3 1.32 -3 2 C-10.28571429 5.42857143 -10.28571429 5.42857143 -15 5 C-12.86699672 2.63442627 -11.04050601 1.37032472 -8.0625 0.25 C-7.39347656 -0.01296875 -6.72445312 -0.2759375 -6.03515625 -0.546875 C-3.68352509 -1.07046274 -2.26382477 -0.74954377 0 0 Z " fill="#E73C43" transform="translate(688,91)"/>
<path d="M0 0 C1.86680725 3.41407092 2.99246672 6.90861303 4.125 10.625 C4.47820313 11.77226563 4.83140625 12.91953125 5.1953125 14.1015625 C6 17 6 17 6 19 C5.34 19 4.68 19 4 19 C2.19769832 15.17010894 1.80377759 12.21878192 2 8 C1.34 8 0.68 8 0 8 C0 5.36 0 2.72 0 0 Z " fill="#C9464C" transform="translate(871,617)"/>
<path d="M0 0 C0 3.96130371 -1.34877125 4.82914401 -4 7.6875 C-4.7425 8.49574219 -5.485 9.30398438 -6.25 10.13671875 C-6.8275 10.75160156 -7.405 11.36648438 -8 12 C-8 9.37886292 -7.68707555 7.49064888 -7 5 C-6.01 5 -5.02 5 -4 5 C-3.8453125 4.0409375 -3.8453125 4.0409375 -3.6875 3.0625 C-3.460625 2.381875 -3.23375 1.70125 -3 1 C-2.01 0.67 -1.02 0.34 0 0 Z " fill="#F57172" transform="translate(560,694)"/>
<path d="M0 0 C4.25209792 4.12324647 8.13635705 8.51282966 12 13 C8.00288588 13 6.8957671 11.67858456 4 9 C2.3125 6.4375 2.3125 6.4375 1 4 C0.34 3.01 -0.32 2.02 -1 1 C-0.67 0.67 -0.34 0.34 0 0 Z " fill="#F6A0A0" transform="translate(341,384)"/>
<path d="M0 0 C-0.99 0.33 -1.98 0.66 -3 1 C-3 1.66 -3 2.32 -3 3 C-6.4019487 5.09350689 -9.05272412 5.17942163 -13 5 C-9.375 2 -9.375 2 -6 2 C-6 1.34 -6 0.68 -6 0 C-3.50907189 -1.24546405 -2.58919267 -0.7767578 0 0 Z " fill="#F7ABA8" transform="translate(354,925)"/>
<path d="M0 0 C0.66 0.33 1.32 0.66 2 1 C-0.45627573 3.631724 -2.55352037 5.81527263 -6 7 C-7.34364362 6.71101782 -8.67986936 6.38228783 -10 6 C-8.3811004 4.96951963 -6.75467511 3.95085322 -5.125 2.9375 C-4.22007812 2.36902344 -3.31515625 1.80054688 -2.3828125 1.21484375 C-1.20332031 0.61349609 -1.20332031 0.61349609 0 0 Z " fill="#F7888A" transform="translate(458,874)"/>
<path d="M0 0 C5.22000584 0.52200058 9.58713788 2.20904902 14 5 C14.33 5.66 14.66 6.32 15 7 C12.66256362 6.34551781 10.33080564 5.67728821 8 5 C6.3603125 4.5359375 6.3603125 4.5359375 4.6875 4.0625 C2 3 2 3 0 0 Z " fill="#FC7B7D" transform="translate(662,472)"/>
<path d="M0 0 C0.33 0.66 0.66 1.32 1 2 C-1.22295634 8.55187131 -1.22295634 8.55187131 -4.11328125 10.21875 C-4.73589844 10.4765625 -5.35851562 10.734375 -6 11 C-5.57576756 9.53775201 -5.13509755 8.08026588 -4.6875 6.625 C-4.44386719 5.81289062 -4.20023437 5.00078125 -3.94921875 4.1640625 C-3 2 -3 2 0 0 Z " fill="#F8AFAE" transform="translate(317,248)"/>
<path d="M0 0 C3.98069267 2.87494471 6.43571997 5.82117329 9 10 C8.67 10.66 8.34 11.32 8 12 C4.72257902 8.89973691 2.06895163 6.02901106 0 2 C0 1.34 0 0.68 0 0 Z " fill="#F4AAAA" transform="translate(562,244)"/>
<path d="M0 0 C0 0.99 0 1.98 0 3 C-1.53125 4.38671875 -1.53125 4.38671875 -3.5 5.6875 C-4.47453125 6.34298828 -4.47453125 6.34298828 -5.46875 7.01171875 C-5.9740625 7.33785156 -6.479375 7.66398438 -7 8 C-7.66 7.67 -8.32 7.34 -9 7 C-8.67 6.67 -8.34 6.34 -8 6 C-8.66 5.34 -9.32 4.68 -10 4 C-6.7 2.68 -3.4 1.36 0 0 Z " fill="#E69190" transform="translate(408,173)"/>
<path d="M0 0 C0.66 0.33 1.32 0.66 2 1 C0.32482761 4.53647504 -0.49280817 5.7911563 -4.1875 7.3125 C-5.5796875 7.6528125 -5.5796875 7.6528125 -7 8 C-7 7.01 -7 6.02 -7 5 C-5.46875 3.61328125 -5.46875 3.61328125 -3.5 2.3125 C-2.8503125 1.87550781 -2.200625 1.43851563 -1.53125 0.98828125 C-1.0259375 0.66214844 -0.520625 0.33601562 0 0 Z " fill="#F68B8D" transform="translate(490,726)"/>
<path d="M0 0 C0.66 0.33 1.32 0.66 2 1 C-1.49087093 5.0042343 -3.64951939 6.62671065 -9 7 C-9 6.34 -9 5.68 -9 5 C-8.01 5 -7.02 5 -6 5 C-6 4.34 -6 3.68 -6 3 C-5.01 3 -4.02 3 -3 3 C-3 2.34 -3 1.68 -3 1 C-2.01 0.67 -1.02 0.34 0 0 Z " fill="#F57C80" transform="translate(505,845)"/>
<path d="M0 0 C0.33 0.66 0.66 1.32 1 2 C0.14453125 4.3125 0.14453125 4.3125 -1.1875 7 C-1.61417969 7.886875 -2.04085937 8.77375 -2.48046875 9.6875 C-4.12049388 12.18337372 -5.2451887 12.96178418 -8 14 C-6.6744419 10.37723685 -5.05653045 7.36494652 -2.875 4.1875 C-2.33617187 3.39730469 -1.79734375 2.60710938 -1.2421875 1.79296875 C-0.83226562 1.20128906 -0.42234375 0.60960937 0 0 Z " fill="#F15C5F" transform="translate(608,684)"/>
<path d="M0 0 C4.52615993 3.67832017 8.39424999 7.41086363 12 12 C8.60391496 10.54453498 6.59139701 8.59139701 4 6 C1.86690808 4.76487921 1.86690808 4.76487921 0 4 C0 2.68 0 1.36 0 0 Z " fill="#FB9092" transform="translate(356,428)"/>
<path d="M0 0 C2.21736634 1.10868317 4.03617993 2.49440461 6 4 C1.375 6.125 1.375 6.125 -2 5 C-1.34 4.67 -0.68 4.34 0 4 C-1.65 4 -3.3 4 -5 4 C-3.36587557 2.29159719 -2.13093906 1.06546953 0 0 Z " fill="#EC8786" transform="translate(353,921)"/>
<path d="M0 0 C0.99 0 1.98 0 3 0 C1.6062718 4.43458973 -0.60582235 6.87378374 -4 10 C-4.33 9.34 -4.66 8.68 -5 8 C-4.34 7.01 -3.68 6.02 -3 5 C-2.34 5 -1.68 5 -1 5 C-0.67 3.35 -0.34 1.7 0 0 Z " fill="#F67375" transform="translate(582,661)"/>
<path d="M0 0 C2.03819846 2.03819846 2.67841059 3.29417798 3.6875 5.9375 C3.95949219 6.62714844 4.23148438 7.31679688 4.51171875 8.02734375 C5 10 5 10 4 13 C4 12.34 4 11.68 4 11 C3.34 11 2.68 11 2 11 C-0.32590854 7.36576791 -0.16265833 4.22911669 0 0 Z " fill="#DC454B" transform="translate(866,604)"/>
<path d="M0 0 C0.66 0.33 1.32 0.66 2 1 C-0.45699392 3.63249349 -2.56568654 5.78137264 -6 7 C-6.99 6.67 -7.98 6.34 -9 6 C-6.03 4.02 -3.06 2.04 0 0 Z " fill="#F39190" transform="translate(376,907)"/>
<path d="M0 0 C0.33 0.99 0.66 1.98 1 3 C0.43410156 3.48210938 -0.13179687 3.96421875 -0.71484375 4.4609375 C-1.44832031 5.09257813 -2.18179688 5.72421875 -2.9375 6.375 C-3.66839844 7.00148438 -4.39929688 7.62796875 -5.15234375 8.2734375 C-7.08380906 9.87747714 -7.08380906 9.87747714 -8 12 C-8.66 11.67 -9.32 11.34 -10 11 C-8.89718873 9.72799029 -7.79269231 8.45744147 -6.6875 7.1875 C-6.07261719 6.47980469 -5.45773437 5.77210938 -4.82421875 5.04296875 C-3.26665665 3.29863261 -1.67341125 1.63221959 0 0 Z " fill="#EF6B6C" transform="translate(581,644)"/>
<path d="M0 0 C4.05281712 1.22527029 7.44360764 2.69880494 11 5 C9 6 9 6 5.5 5.3125 C2 4 2 4 0.5625 1.875 C0.376875 1.25625 0.19125 0.6375 0 0 Z " fill="#E9595C" transform="translate(730,464)"/>
<path d="M0 0 C0.99 0.33 1.98 0.66 3 1 C0.94766315 3.2477975 -0.00667261 4.0022242 -3 5 C-3.33 5.66 -3.66 6.32 -4 7 C-4.99 6.67 -5.98 6.34 -7 6 C-5.90716423 4.96704564 -4.80029421 3.94892165 -3.6875 2.9375 C-3.07261719 2.36902344 -2.45773437 1.80054688 -1.82421875 1.21484375 C-0.92123047 0.61349609 -0.92123047 0.61349609 0 0 Z " fill="#F58386" transform="translate(457,848)"/>
<path d="M0 0 C3.91211733 1.15585285 6.8745041 2.35534962 10 5 C4.60158311 5.49076517 4.60158311 5.49076517 1.625 3.0625 C0 1 0 1 0 0 Z " fill="#F7A0A1" transform="translate(373,410)"/>
<path d="M0 0 C0.99 0.33 1.98 0.66 3 1 C1.68 3.64 0.36 6.28 -1 9 C-1.99 8.34 -2.98 7.68 -4 7 C-2.68 4.69 -1.36 2.38 0 0 Z " fill="#F36C6F" transform="translate(617,600)"/>
<path d="M0 0 C4.55737263 0.43820891 7.57653445 0.85041169 11 4 C9.54119891 3.85892253 8.08296449 3.71197585 6.625 3.5625 C5.40683594 3.44068359 5.40683594 3.44068359 4.1640625 3.31640625 C2 3 2 3 0 2 C0 1.34 0 0.68 0 0 Z " fill="#F9676D" transform="translate(727,519)"/>
<path d="M0 0 C4.55737263 0.43820891 7.57653445 0.85041169 11 4 C6.94393835 3.53199289 3.53411321 3.12046792 0 1 C0 0.67 0 0.34 0 0 Z " fill="#F8A0A2" transform="translate(421,354)"/>
<path d="M0 0 C3.81684226 1.55500981 6.19195732 4.03595495 9 7 C5.21616321 6.07506212 3.43306306 5.60628829 1.125 2.375 C0.75375 1.59125 0.3825 0.8075 0 0 Z " fill="#E44A4D" transform="translate(780,495)"/>
<path d="M0 0 C-1.44253657 3.36591866 -3.33264727 5.51047079 -6 8 C-5.40138258 5.64828869 -4.73075648 3.3140622 -4 1 C-2 0 -2 0 0 0 Z " fill="#FBBDBD" transform="translate(325,238)"/>
<path d="M0 0 C0.99 0.33 1.98 0.66 3 1 C0.36 3.64 -2.28 6.28 -5 9 C-5.33 8.01 -5.66 7.02 -6 6 C-5.195625 5.38125 -4.39125 4.7625 -3.5625 4.125 C-0.96125481 2.25835959 -0.96125481 2.25835959 0 0 Z " fill="#FDC8C8" transform="translate(379,192)"/>
<path d="M0 0 C1 2 1 2 0.3125 4.5 C-1.15567038 7.29651501 -2.09303901 7.93411431 -5 9 C-3.7508258 5.54074837 -2.32472205 2.85306797 0 0 Z " fill="#F05E60" transform="translate(599,698)"/>
<path d="M0 0 C2.31 0 4.62 0 7 0 C6.34 1.32 5.68 2.64 5 4 C2.525 3.01 2.525 3.01 0 2 C0 1.34 0 0.68 0 0 Z " fill="#FF7C80" transform="translate(632,477)"/>
<path d="M0 0 C0.99 0 1.98 0 3 0 C5.35723489 2.53184488 6 3.47190093 6 7 C5.34 7 4.68 7 4 7 C0 2.52941176 0 2.52941176 0 0 Z " fill="#E73D45" transform="translate(652,188)"/>
<path d="M0 0 C-1.09445838 0.86657116 -2.20097781 1.71792724 -3.3125 2.5625 C-3.92738281 3.03816406 -4.54226563 3.51382813 -5.17578125 4.00390625 C-5.77777344 4.33261719 -6.37976563 4.66132813 -7 5 C-7.99 4.67 -8.98 4.34 -10 4 C-4.4 -2.2 -4.4 -2.2 0 0 Z " fill="#FDC1C1" transform="translate(383,187)"/>
<path d="M0 0 C3.0916909 2.52956528 3.90931332 5.22454612 5 9 C2 8 2 8 0.8125 6.1875 C0 4 0 4 0 0 Z " fill="#D53037" transform="translate(757,117)"/>
<path d="M0 0 C1.32 0.33 2.64 0.66 4 1 C2.68 2.32 1.36 3.64 0 5 C-0.99 4.67 -1.98 4.34 -3 4 C-2.01 2.68 -1.02 1.36 0 0 Z " fill="#F99294" transform="translate(434,866)"/>
<path d="M0 0 C0.66 0.33 1.32 0.66 2 1 C-0.31 3.31 -2.62 5.62 -5 8 C-5.66 7.67 -6.32 7.34 -7 7 C-2.25 1.125 -2.25 1.125 0 0 Z " fill="#FE8E92" transform="translate(564,664)"/>
<path d="M0 0 C1.48206495 0.254496 2.96068615 0.52911762 4.4375 0.8125 C5.67306641 1.03873047 5.67306641 1.03873047 6.93359375 1.26953125 C7.95646484 1.63111328 7.95646484 1.63111328 9 2 C9.33 2.99 9.66 3.98 10 5 C6.08788267 3.84414715 3.1254959 2.64465038 0 0 Z " fill="#ED4B51" transform="translate(763,536)"/>
<path d="M0 0 C0 3.20395416 -0.74335022 5.09399739 -2 8 C-2.99 8 -3.98 8 -5 8 C-3.8141763 4.62496331 -2.72426311 2.35277269 0 0 Z " fill="#F6ABAB" transform="translate(472,242)"/>
<path d="M0 0 C0.66 0.33 1.32 0.66 2 1 C0 4 0 4 -3.125 4.6875 C-4.07375 4.790625 -5.0225 4.89375 -6 5 C-2.25 1.125 -2.25 1.125 0 0 Z " fill="#F78688" transform="translate(491,854)"/>
<path d="M0 0 C0.99 0.33 1.98 0.66 3 1 C1.02 3.31 -0.96 5.62 -3 8 C-3 4.42424104 -1.91159393 2.94704065 0 0 Z " fill="#EF6869" transform="translate(548,706)"/>
<path d="M0 0 C0.8353125 0.37125 0.8353125 0.37125 1.6875 0.75 C-1.125 2.8125 -1.125 2.8125 -4.3125 4.75 C-5.3025 4.42 -6.2925 4.09 -7.3125 3.75 C-2.88173077 -0.31153846 -2.88173077 -0.31153846 0 0 Z " fill="#F3A4A3" transform="translate(551.3125,344.25)"/>
<path d="M0 0 C4.8 2.46153846 4.8 2.46153846 5.8125 5.1875 C5.874375 5.785625 5.93625 6.38375 6 7 C3 5.1875 3 5.1875 0 3 C0 2.01 0 1.02 0 0 Z " fill="#F9ADAD" transform="translate(368,312)"/>
<path d="M0 0 C0.33 0.66 0.66 1.32 1 2 C0.01 1.67 -0.98 1.34 -2 1 C-1.34 0.67 -0.68 0.34 0 0 Z " fill="#DF9A9B" transform="translate(357,926)"/>
<path d="M0 0 C0.66 0 1.32 0 2 0 C1.67 0.66 1.34 1.32 1 2 C0.67 1.34 0.34 0.68 0 0 Z " fill="#F7B3B6" transform="translate(297,813)"/>
<path d="M0 0 C0.66 0.66 1.32 1.32 2 2 C1.34 2 0.68 2 0 2 C0 1.34 0 0.68 0 0 Z " fill="#F4565C" transform="translate(835,588)"/>
<path d="M0 0 C0.33 0.66 0.66 1.32 1 2 C0.34 1.67 -0.32 1.34 -1 1 C-0.67 0.67 -0.34 0.34 0 0 Z " fill="#EAA2A2" transform="translate(340,412)"/>
<path d="M0 0 C0.33 0.66 0.66 1.32 1 2 C0.34 1.67 -0.32 1.34 -1 1 C-0.67 0.67 -0.34 0.34 0 0 Z " fill="#E7A6A5" transform="translate(337,408)"/>
<path d="M0 0 C0.66 0.66 1.32 1.32 2 2 C1.34 2 0.68 2 0 2 C0 1.34 0 0.68 0 0 Z " fill="#FDC4C6" transform="translate(473,332)"/>
<path d="M0 0 C0.66 0 1.32 0 2 0 C1.67 0.66 1.34 1.32 1 2 C0.67 1.34 0.34 0.68 0 0 Z " fill="#FEC5C5" transform="translate(459,310)"/>
<path d="M0 0 C3 1 3 1 3 1 Z " fill="#F35359" transform="translate(682,213)"/>
<path d="M0 0 C2 1 2 1 2 1 Z " fill="#FBA7A9" transform="translate(401,888)"/>
<path d="M0 0 C2 1 2 1 2 1 Z " fill="#F29597" transform="translate(473,869)"/>
<path d="M0 0 C2 1 2 1 2 1 Z " fill="#FEB2B3" transform="translate(377,776)"/>
<path d="M0 0 C2 1 2 1 2 1 Z " fill="#FD6A6F" transform="translate(739,527)"/>
<path d="M0 0 C2 1 2 1 2 1 Z " fill="#FF8588" transform="translate(571,469)"/>
<path d="M0 0 C2 1 2 1 2 1 Z " fill="#FE8389" transform="translate(568,469)"/>
<path d="M0 0 C2 1 2 1 2 1 Z " fill="#E8A4A3" transform="translate(339,415)"/>
<path d="M0 0 C2 1 2 1 2 1 Z " fill="#FDB7B9" transform="translate(461,368)"/>
<path d="M0 0 C2 1 2 1 2 1 Z " fill="#FEBDBD" transform="translate(491,347)"/>
<path d="" fill="#F4B7B8" transform="translate(0,0)"/>
<path d="" fill="#F6BCBB" transform="translate(0,0)"/>
<path d="" fill="#F7BCBC" transform="translate(0,0)"/>
<path d="" fill="#F7BEBC" transform="translate(0,0)"/>
<path d="M0 0 C2 1 2 1 2 1 Z " fill="#F8BFBF" transform="translate(505,221)"/>
<path d="M0 0 C2 1 2 1 2 1 Z " fill="#F0484E" transform="translate(716,215)"/>
<path d="" fill="#D69294" transform="translate(0,0)"/>
<path d="" fill="#E09798" transform="translate(0,0)"/>
<path d="" fill="#E99B9B" transform="translate(0,0)"/>
<path d="" fill="#EEA2A4" transform="translate(0,0)"/>
<path d="" fill="#F39E9E" transform="translate(0,0)"/>
<path d="" fill="#F49A9C" transform="translate(0,0)"/>
<path d="" fill="#F3989B" transform="translate(0,0)"/>
<path d="" fill="#FBA6A7" transform="translate(0,0)"/>
<path d="" fill="#F3A3A8" transform="translate(0,0)"/>
<path d="" fill="#FBA5A6" transform="translate(0,0)"/>
<path d="" fill="#F49193" transform="translate(0,0)"/>
<path d="" fill="#F29292" transform="translate(0,0)"/>
<path d="" fill="#FD9FA2" transform="translate(0,0)"/>
<path d="" fill="#FFAFAE" transform="translate(0,0)"/>
<path d="" fill="#F28184" transform="translate(0,0)"/>
<path d="" fill="#FCB7B8" transform="translate(0,0)"/>
<path d="" fill="#F8B2B4" transform="translate(0,0)"/>
<path d="" fill="#FD9C9D" transform="translate(0,0)"/>
<path d="" fill="#FF9CA1" transform="translate(0,0)"/>
<path d="" fill="#FFACAB" transform="translate(0,0)"/>
<path d="" fill="#F6B5B6" transform="translate(0,0)"/>
<path d="" fill="#F27E80" transform="translate(0,0)"/>
<path d="" fill="#FEAEAF" transform="translate(0,0)"/>
<path d="" fill="#EF797E" transform="translate(0,0)"/>
<path d="" fill="#FEA9AB" transform="translate(0,0)"/>
<path d="" fill="#F6B6B9" transform="translate(0,0)"/>
<path d="" fill="#FFA9AB" transform="translate(0,0)"/>
<path d="" fill="#F2B4B5" transform="translate(0,0)"/>
<path d="" fill="#F1B5B4" transform="translate(0,0)"/>
<path d="" fill="#F27379" transform="translate(0,0)"/>
<path d="" fill="#F8B4B8" transform="translate(0,0)"/>
<path d="" fill="#FBB8B7" transform="translate(0,0)"/>
<path d="" fill="#FBADAE" transform="translate(0,0)"/>
<path d="" fill="#F8A5A8" transform="translate(0,0)"/>
<path d="" fill="#F8BABA" transform="translate(0,0)"/>
<path d="" fill="#FAA9AC" transform="translate(0,0)"/>
<path d="" fill="#FCA7A8" transform="translate(0,0)"/>
<path d="" fill="#FDA4A5" transform="translate(0,0)"/>
<path d="" fill="#E7B5B3" transform="translate(0,0)"/>
<path d="" fill="#ECACB0" transform="translate(0,0)"/>
<path d="" fill="#FE8187" transform="translate(0,0)"/>
<path d="" fill="#F49AA1" transform="translate(0,0)"/>
<path d="" fill="#FE9796" transform="translate(0,0)"/>
<path d="" fill="#FE9398" transform="translate(0,0)"/>
<path d="" fill="#E1AAAA" transform="translate(0,0)"/>
<path d="" fill="#F8A2A7" transform="translate(0,0)"/>
<path d="" fill="#F4686B" transform="translate(0,0)"/>
<path d="" fill="#F8A0A1" transform="translate(0,0)"/>
<path d="" fill="#D3A09F" transform="translate(0,0)"/>
<path d="" fill="#FE7E81" transform="translate(0,0)"/>
<path d="" fill="#FF7F84" transform="translate(0,0)"/>
<path d="" fill="#FD7F85" transform="translate(0,0)"/>
<path d="" fill="#FF8184" transform="translate(0,0)"/>
<path d="" fill="#FB9A9E" transform="translate(0,0)"/>
<path d="" fill="#F56669" transform="translate(0,0)"/>
<path d="" fill="#F26468" transform="translate(0,0)"/>
<path d="" fill="#FB8E93" transform="translate(0,0)"/>
<path d="" fill="#B35A5E" transform="translate(0,0)"/>
<path d="" fill="#B65B5D" transform="translate(0,0)"/>
<path d="" fill="#CA555A" transform="translate(0,0)"/>
<path d="" fill="#C25B5F" transform="translate(0,0)"/>
<path d="" fill="#EB565D" transform="translate(0,0)"/>
<path d="" fill="#F8848A" transform="translate(0,0)"/>
<path d="" fill="#F98386" transform="translate(0,0)"/>
<path d="" fill="#EA565A" transform="translate(0,0)"/>
<path d="" fill="#EE5659" transform="translate(0,0)"/>
<path d="" fill="#EF5559" transform="translate(0,0)"/>
<path d="" fill="#F3595E" transform="translate(0,0)"/>
<path d="" fill="#F5555D" transform="translate(0,0)"/>
<path d="" fill="#F65962" transform="translate(0,0)"/>
<path d="" fill="#F9585F" transform="translate(0,0)"/>
<path d="" fill="#E8575A" transform="translate(0,0)"/>
<path d="" fill="#F6585D" transform="translate(0,0)"/>
<path d="" fill="#F95B60" transform="translate(0,0)"/>
<path d="" fill="#FD7378" transform="translate(0,0)"/>
<path d="" fill="#FF7377" transform="translate(0,0)"/>
<path d="" fill="#FD7075" transform="translate(0,0)"/>
<path d="" fill="#F96468" transform="translate(0,0)"/>
<path d="" fill="#FC7577" transform="translate(0,0)"/>
<path d="" fill="#FA6D74" transform="translate(0,0)"/>
<path d="" fill="#FC6A6F" transform="translate(0,0)"/>
<path d="" fill="#F86F74" transform="translate(0,0)"/>
<path d="" fill="#F76D71" transform="translate(0,0)"/>
<path d="" fill="#FD696E" transform="translate(0,0)"/>
<path d="" fill="#FD6E73" transform="translate(0,0)"/>
<path d="" fill="#FC7076" transform="translate(0,0)"/>
<path d="" fill="#FF7075" transform="translate(0,0)"/>
<path d="" fill="#FE6E74" transform="translate(0,0)"/>
<path d="" fill="#FB767A" transform="translate(0,0)"/>
<path d="" fill="#F97477" transform="translate(0,0)"/>
<path d="" fill="#F26064" transform="translate(0,0)"/>
<path d="" fill="#F97779" transform="translate(0,0)"/>
<path d="" fill="#F87E80" transform="translate(0,0)"/>
<path d="" fill="#F47D81" transform="translate(0,0)"/>
<path d="" fill="#F48083" transform="translate(0,0)"/>
<path d="" fill="#F98084" transform="translate(0,0)"/>
<path d="" fill="#F36C6D" transform="translate(0,0)"/>
<path d="" fill="#FF7F82" transform="translate(0,0)"/>
<path d="" fill="#FD878B" transform="translate(0,0)"/>
<path d="" fill="#FD868C" transform="translate(0,0)"/>
<path d="" fill="#FE868B" transform="translate(0,0)"/>
<path d="" fill="#FF9396" transform="translate(0,0)"/>
<path d="" fill="#FE9D9E" transform="translate(0,0)"/>
<path d="" fill="#FF9798" transform="translate(0,0)"/>
<path d="" fill="#FF9B9F" transform="translate(0,0)"/>
<path d="" fill="#FF9C9F" transform="translate(0,0)"/>
<path d="" fill="#F98C90" transform="translate(0,0)"/>
<path d="" fill="#FF9DA0" transform="translate(0,0)"/>
<path d="" fill="#F69294" transform="translate(0,0)"/>
<path d="" fill="#F57C80" transform="translate(0,0)"/>
<path d="" fill="#F57C80" transform="translate(0,0)"/>
<path d="" fill="#FF9FA3" transform="translate(0,0)"/>
<path d="" fill="#FF9DA1" transform="translate(0,0)"/>
<path d="" fill="#FEA1A4" transform="translate(0,0)"/>
<path d="" fill="#FF9498" transform="translate(0,0)"/>
<path d="" fill="#F99393" transform="translate(0,0)"/>
<path d="" fill="#FAA7A9" transform="translate(0,0)"/>
<path d="" fill="#F89898" transform="translate(0,0)"/>
<path d="" fill="#FB9A9B" transform="translate(0,0)"/>
<path d="" fill="#FC9EA2" transform="translate(0,0)"/>
<path d="" fill="#FDAAAC" transform="translate(0,0)"/>
<path d="" fill="#E5A7A5" transform="translate(0,0)"/>
<path d="" fill="#EFA8A8" transform="translate(0,0)"/>
<path d="" fill="#FEA4A6" transform="translate(0,0)"/>
<path d="" fill="#FAB0B0" transform="translate(0,0)"/>
<path d="" fill="#FAB0B0" transform="translate(0,0)"/>
<path d="" fill="#FCB0B0" transform="translate(0,0)"/>
<path d="" fill="#FCB7B6" transform="translate(0,0)"/>
<path d="" fill="#F7B3B4" transform="translate(0,0)"/>
<path d="" fill="#FFB8B9" transform="translate(0,0)"/>
<path d="" fill="#FEB8BB" transform="translate(0,0)"/>
<path d="" fill="#F8B6B6" transform="translate(0,0)"/>
<path d="" fill="#F9B5B5" transform="translate(0,0)"/>
<path d="" fill="#FFC0C1" transform="translate(0,0)"/>
<path d="" fill="#FFC7C7" transform="translate(0,0)"/>
<path d="" fill="#FFB9B9" transform="translate(0,0)"/>
<path d="" fill="#FDC0C3" transform="translate(0,0)"/>
<path d="" fill="#F4B9B8" transform="translate(0,0)"/>
<path d="" fill="#F5B6B8" transform="translate(0,0)"/>
<path d="" fill="#FEBEC3" transform="translate(0,0)"/>
<path d="" fill="#FEC0C2" transform="translate(0,0)"/>
<path d="" fill="#FFC3C3" transform="translate(0,0)"/>
<path d="" fill="#F4B8B8" transform="translate(0,0)"/>
<path d="" fill="#FEC2C1" transform="translate(0,0)"/>
<path d="" fill="#FFC2C2" transform="translate(0,0)"/>
<path d="" fill="#F9BDBC" transform="translate(0,0)"/>
<path d="" fill="#FFC2C4" transform="translate(0,0)"/>
<path d="" fill="#FCBDBD" transform="translate(0,0)"/>
<path d="" fill="#FFC2C4" transform="translate(0,0)"/>
<path d="" fill="#FFC0BF" transform="translate(0,0)"/>
<path d="" fill="#F6C0C0" transform="translate(0,0)"/>
<path d="" fill="#FBBCBF" transform="translate(0,0)"/>
<path d="" fill="#F8BEBD" transform="translate(0,0)"/>
<path d="" fill="#F7C0BD" transform="translate(0,0)"/>
<path d="" fill="#F7C0BF" transform="translate(0,0)"/>
<path d="" fill="#FEBCBA" transform="translate(0,0)"/>
<path d="" fill="#FAC3C0" transform="translate(0,0)"/>
<path d="" fill="#F8C1C0" transform="translate(0,0)"/>
<path d="" fill="#FAC0BE" transform="translate(0,0)"/>
<path d="" fill="#F4BEBD" transform="translate(0,0)"/>
<path d="" fill="#F5C2C0" transform="translate(0,0)"/>
<path d="" fill="#F25459" transform="translate(0,0)"/>
<path d="" fill="#E7444C" transform="translate(0,0)"/>
<path d="" fill="#F3565A" transform="translate(0,0)"/>
<path d="" fill="#F5565A" transform="translate(0,0)"/>
<path d="" fill="#F15A60" transform="translate(0,0)"/>
<path d="" fill="#F7545B" transform="translate(0,0)"/>
<path d="" fill="#EFB9B7" transform="translate(0,0)"/>
<path d="" fill="#E3B2AF" transform="translate(0,0)"/>
<path d="" fill="#E8B4B2" transform="translate(0,0)"/>
<path d="" fill="#E4B3B3" transform="translate(0,0)"/>
<path d="" fill="#F6565A" transform="translate(0,0)"/>
<path d="" fill="#E4AEB0" transform="translate(0,0)"/>
<path d="" fill="#E4ABAB" transform="translate(0,0)"/>
<path d="" fill="#E84247" transform="translate(0,0)"/>
<path d="" fill="#FA5760" transform="translate(0,0)"/>
<path d="" fill="#E84046" transform="translate(0,0)"/>
<path d="" fill="#F24850" transform="translate(0,0)"/>
<path d="" fill="#E44446" transform="translate(0,0)"/>
<path d="" fill="#F4454D" transform="translate(0,0)"/>
<path d="" fill="#EE4248" transform="translate(0,0)"/>
<path d="" fill="#F5444C" transform="translate(0,0)"/>
</svg>
